<svg width="400" height="69" viewBox="0 0 400 69" fill="none" xmlns="http://www.w3.org/2000/svg">
<g filter="url(#filter0_d_131_609)">
<mask id="path-1-outside-1_131_609" maskUnits="userSpaceOnUse" x="3.87988" y="0.97998" width="381" height="49" fill="black">
<rect fill="white" x="3.87988" y="0.97998" width="381" height="49"/>
<path d="M38.2999 20.34H27.3199V15.3L25.9999 13.98H20.1799L18.8599 15.3V34.68L20.1799 36H25.9999L27.3199 34.68V29.88H38.2999V38.58L31.8799 45H14.2999L7.87988 38.58V11.4L14.2999 4.97998H31.8799L38.2999 11.4V20.34Z"/>
<path d="M62.7527 36V29.34H54.8927V36H57.2927V45H41.5127V36H43.9127V13.98H41.5127V4.97998H57.2927V13.98H54.8927V19.5H62.7527V13.98H60.2927V4.97998H76.1327V13.98H73.7327V36H76.1327V45H60.2927V36H62.7527Z"/>
<path d="M110.201 4.97998V13.98H108.161L116.981 36H119.381V45H103.961V36H105.341L104.741 34.14H94.1214L93.4614 36H94.7814V45H79.4814V36H81.8814L90.7014 13.98H88.9614V4.97998H110.201ZM96.8214 26.46H101.981L99.4014 20.22L96.8214 26.46Z"/>
<path d="M146.025 45L135.225 27.12V36H137.625V45H121.845V36H124.245V13.98H121.845V4.97998H134.865L145.845 23.28V13.98H143.445V4.97998H159.225V13.98H156.825V36H159.225V45H146.025Z"/>
<path d="M192.987 20.34H182.007V15.3L180.687 13.98H174.867L173.547 15.3V34.68L174.867 36H180.687L182.007 34.68V29.88H192.987V38.58L186.567 45H168.987L162.567 38.58V11.4L168.987 4.97998H186.567L192.987 11.4V20.34Z"/>
<path d="M209.58 36H216.6V34.38H225.6V45H196.2V36H198.6V13.98H196.2V4.97998H225.6V15.6H216.6V13.98H209.58V20.52H211.2V18.9H220.2V31.14H211.2V29.52H209.58V36Z"/>
<path d="M268.202 40.08L259.502 25.62V36H261.902V45H246.122V36H248.522V13.98H246.122V4.97998H258.962L268.202 20.52L277.502 4.97998H290.402V13.98H287.942V36H290.402V45H274.562V36H276.962V25.62L268.202 40.08Z"/>
<path d="M324.42 4.97998V13.98H322.38L331.2 36H333.6V45H318.18V36H319.56L318.96 34.14H308.34L307.68 36H309V45H293.7V36H296.1L304.92 13.98H303.18V4.97998H324.42ZM311.04 26.46H316.2L313.62 20.22L311.04 26.46Z"/>
<path d="M358.503 31.26L353.643 36H355.323V45H336.063V36H339.843L351.003 25.08L339.843 14.16H336.063V5.15998H355.323V14.16H353.643L358.503 18.96L363.423 14.16H361.743V5.15998H380.403V14.1H377.223L366.063 25.08L377.223 36H380.403V45H361.743V36H363.423L358.503 31.26Z"/>
</mask>
<path d="M38.2999 20.34H27.3199V15.3L25.9999 13.98H20.1799L18.8599 15.3V34.68L20.1799 36H25.9999L27.3199 34.68V29.88H38.2999V38.58L31.8799 45H14.2999L7.87988 38.58V11.4L14.2999 4.97998H31.8799L38.2999 11.4V20.34Z" fill="white"/>
<path d="M62.7527 36V29.34H54.8927V36H57.2927V45H41.5127V36H43.9127V13.98H41.5127V4.97998H57.2927V13.98H54.8927V19.5H62.7527V13.98H60.2927V4.97998H76.1327V13.98H73.7327V36H76.1327V45H60.2927V36H62.7527Z" fill="white"/>
<path d="M110.201 4.97998V13.98H108.161L116.981 36H119.381V45H103.961V36H105.341L104.741 34.14H94.1214L93.4614 36H94.7814V45H79.4814V36H81.8814L90.7014 13.98H88.9614V4.97998H110.201ZM96.8214 26.46H101.981L99.4014 20.22L96.8214 26.46Z" fill="white"/>
<path d="M146.025 45L135.225 27.12V36H137.625V45H121.845V36H124.245V13.98H121.845V4.97998H134.865L145.845 23.28V13.98H143.445V4.97998H159.225V13.98H156.825V36H159.225V45H146.025Z" fill="white"/>
<path d="M192.987 20.34H182.007V15.3L180.687 13.98H174.867L173.547 15.3V34.68L174.867 36H180.687L182.007 34.68V29.88H192.987V38.58L186.567 45H168.987L162.567 38.58V11.4L168.987 4.97998H186.567L192.987 11.4V20.34Z" fill="white"/>
<path d="M209.58 36H216.6V34.38H225.6V45H196.2V36H198.6V13.98H196.2V4.97998H225.6V15.6H216.6V13.98H209.58V20.52H211.2V18.9H220.2V31.14H211.2V29.52H209.58V36Z" fill="white"/>
<path d="M268.202 40.08L259.502 25.62V36H261.902V45H246.122V36H248.522V13.98H246.122V4.97998H258.962L268.202 20.52L277.502 4.97998H290.402V13.98H287.942V36H290.402V45H274.562V36H276.962V25.62L268.202 40.08Z" fill="white"/>
<path d="M324.42 4.97998V13.98H322.38L331.2 36H333.6V45H318.18V36H319.56L318.96 34.14H308.34L307.68 36H309V45H293.7V36H296.1L304.92 13.98H303.18V4.97998H324.42ZM311.04 26.46H316.2L313.62 20.22L311.04 26.46Z" fill="white"/>
<path d="M358.503 31.26L353.643 36H355.323V45H336.063V36H339.843L351.003 25.08L339.843 14.16H336.063V5.15998H355.323V14.16H353.643L358.503 18.96L363.423 14.16H361.743V5.15998H380.403V14.1H377.223L366.063 25.08L377.223 36H380.403V45H361.743V36H363.423L358.503 31.26Z" fill="white"/>
<path d="M38.2999 20.34H27.3199V15.3L25.9999 13.98H20.1799L18.8599 15.3V34.68L20.1799 36H25.9999L27.3199 34.68V29.88H38.2999V38.58L31.8799 45H14.2999L7.87988 38.58V11.4L14.2999 4.97998H31.8799L38.2999 11.4V20.34Z" stroke="url(#paint0_linear_131_609)" stroke-width="8" stroke-linejoin="round" mask="url(#path-1-outside-1_131_609)"/>
<path d="M62.7527 36V29.34H54.8927V36H57.2927V45H41.5127V36H43.9127V13.98H41.5127V4.97998H57.2927V13.98H54.8927V19.5H62.7527V13.98H60.2927V4.97998H76.1327V13.98H73.7327V36H76.1327V45H60.2927V36H62.7527Z" stroke="url(#paint1_linear_131_609)" stroke-width="8" stroke-linejoin="round" mask="url(#path-1-outside-1_131_609)"/>
<path d="M110.201 4.97998V13.98H108.161L116.981 36H119.381V45H103.961V36H105.341L104.741 34.14H94.1214L93.4614 36H94.7814V45H79.4814V36H81.8814L90.7014 13.98H88.9614V4.97998H110.201ZM96.8214 26.46H101.981L99.4014 20.22L96.8214 26.46Z" stroke="url(#paint2_linear_131_609)" stroke-width="8" stroke-linejoin="round" mask="url(#path-1-outside-1_131_609)"/>
<path d="M146.025 45L135.225 27.12V36H137.625V45H121.845V36H124.245V13.98H121.845V4.97998H134.865L145.845 23.28V13.98H143.445V4.97998H159.225V13.98H156.825V36H159.225V45H146.025Z" stroke="url(#paint3_linear_131_609)" stroke-width="8" stroke-linejoin="round" mask="url(#path-1-outside-1_131_609)"/>
<path d="M192.987 20.34H182.007V15.3L180.687 13.98H174.867L173.547 15.3V34.68L174.867 36H180.687L182.007 34.68V29.88H192.987V38.58L186.567 45H168.987L162.567 38.58V11.4L168.987 4.97998H186.567L192.987 11.4V20.34Z" stroke="url(#paint4_linear_131_609)" stroke-width="8" stroke-linejoin="round" mask="url(#path-1-outside-1_131_609)"/>
<path d="M209.58 36H216.6V34.38H225.6V45H196.2V36H198.6V13.98H196.2V4.97998H225.6V15.6H216.6V13.98H209.58V20.52H211.2V18.9H220.2V31.14H211.2V29.52H209.58V36Z" stroke="url(#paint5_linear_131_609)" stroke-width="8" stroke-linejoin="round" mask="url(#path-1-outside-1_131_609)"/>
<path d="M268.202 40.08L259.502 25.62V36H261.902V45H246.122V36H248.522V13.98H246.122V4.97998H258.962L268.202 20.52L277.502 4.97998H290.402V13.98H287.942V36H290.402V45H274.562V36H276.962V25.62L268.202 40.08Z" stroke="url(#paint6_linear_131_609)" stroke-width="8" stroke-linejoin="round" mask="url(#path-1-outside-1_131_609)"/>
<path d="M324.42 4.97998V13.98H322.38L331.2 36H333.6V45H318.18V36H319.56L318.96 34.14H308.34L307.68 36H309V45H293.7V36H296.1L304.92 13.98H303.18V4.97998H324.42ZM311.04 26.46H316.2L313.62 20.22L311.04 26.46Z" stroke="url(#paint7_linear_131_609)" stroke-width="8" stroke-linejoin="round" mask="url(#path-1-outside-1_131_609)"/>
<path d="M358.503 31.26L353.643 36H355.323V45H336.063V36H339.843L351.003 25.08L339.843 14.16H336.063V5.15998H355.323V14.16H353.643L358.503 18.96L363.423 14.16H361.743V5.15998H380.403V14.1H377.223L366.063 25.08L377.223 36H380.403V45H361.743V36H363.423L358.503 31.26Z" stroke="url(#paint8_linear_131_609)" stroke-width="8" stroke-linejoin="round" mask="url(#path-1-outside-1_131_609)"/>
</g>
<defs>
<filter id="filter0_d_131_609" x="0.879883" y="0.97998" width="398.523" height="68.02" filterUnits="userSpaceOnUse" color-interpolation-filters="sRGB">
<feFlood flood-opacity="0" result="BackgroundImageFix"/>
<feColorMatrix in="SourceAlpha" type="matrix" values="0 0 0 0 0 0 0 0 0 0 0 0 0 0 0 0 0 0 127 0" result="hardAlpha"/>
<feOffset dx="6" dy="11"/>
<feGaussianBlur stdDeviation="4.5"/>
<feComposite in2="hardAlpha" operator="out"/>
<feColorMatrix type="matrix" values="0 0 0 0 0 0 0 0 0 0 0 0 0 0 0 0 0 0 0.5 0"/>
<feBlend mode="normal" in2="BackgroundImageFix" result="effect1_dropShadow_131_609"/>
<feBlend mode="normal" in="SourceGraphic" in2="effect1_dropShadow_131_609" result="shape"/>
</filter>
<linearGradient id="paint0_linear_131_609" x1="210" y1="-7" x2="210" y2="102" gradientUnits="userSpaceOnUse">
<stop stop-color="#76BA99"/>
<stop offset="0.536458" stop-color="#EAC100"/>
</linearGradient>
<linearGradient id="paint1_linear_131_609" x1="210" y1="-7" x2="210" y2="102" gradientUnits="userSpaceOnUse">
<stop stop-color="#76BA99"/>
<stop offset="0.536458" stop-color="#EAC100"/>
</linearGradient>
<linearGradient id="paint2_linear_131_609" x1="210" y1="-7" x2="210" y2="102" gradientUnits="userSpaceOnUse">
<stop stop-color="#76BA99"/>
<stop offset="0.536458" stop-color="#EAC100"/>
</linearGradient>
<linearGradient id="paint3_linear_131_609" x1="210" y1="-7" x2="210" y2="102" gradientUnits="userSpaceOnUse">
<stop stop-color="#76BA99"/>
<stop offset="0.536458" stop-color="#EAC100"/>
</linearGradient>
<linearGradient id="paint4_linear_131_609" x1="210" y1="-7" x2="210" y2="102" gradientUnits="userSpaceOnUse">
<stop stop-color="#76BA99"/>
<stop offset="0.536458" stop-color="#EAC100"/>
</linearGradient>
<linearGradient id="paint5_linear_131_609" x1="210" y1="-7" x2="210" y2="102" gradientUnits="userSpaceOnUse">
<stop stop-color="#76BA99"/>
<stop offset="0.536458" stop-color="#EAC100"/>
</linearGradient>
<linearGradient id="paint6_linear_131_609" x1="210" y1="-7" x2="210" y2="102" gradientUnits="userSpaceOnUse">
<stop stop-color="#76BA99"/>
<stop offset="0.536458" stop-color="#EAC100"/>
</linearGradient>
<linearGradient id="paint7_linear_131_609" x1="210" y1="-7" x2="210" y2="102" gradientUnits="userSpaceOnUse">
<stop stop-color="#76BA99"/>
<stop offset="0.536458" stop-color="#EAC100"/>
</linearGradient>
<linearGradient id="paint8_linear_131_609" x1="210" y1="-7" x2="210" y2="102" gradientUnits="userSpaceOnUse">
<stop stop-color="#76BA99"/>
<stop offset="0.536458" stop-color="#EAC100"/>
</linearGradient>
</defs>
</svg>
