<svg width="96" height="85" viewBox="0 0 96 85" fill="none" xmlns="http://www.w3.org/2000/svg">
<g filter="url(#filter0_d_104_4874)">
<path d="M43.999 3.33838C48.9344 3.33838 53.6649 4.08326 58.0469 5.44364L53.1484 9.6192C45.7351 7.89946 37.8634 8.31764 30.7575 10.8087C23.6515 13.2998 17.7095 17.7242 13.8554 23.3939C10.0013 29.0636 8.45114 35.6609 9.4459 42.1598C10.4407 48.6588 13.9246 54.6952 19.3561 59.3305C24.7875 63.9657 31.862 66.94 39.4795 67.7908C47.0969 68.6417 54.8305 67.3214 61.4776 64.0352C68.1247 60.7491 73.3127 55.6813 76.2351 49.6198C79.1574 43.5584 79.6502 36.843 77.6369 30.518L82.5313 26.3424C84.1684 30.18 85.0036 34.2328 84.999 38.3166C84.999 57.6346 66.6429 73.2947 43.999 73.2947C21.3551 73.2947 2.99902 57.6346 2.99902 38.3166C2.99902 18.9985 21.3551 3.33838 43.999 3.33838ZM43.999 17.3338C46.076 17.333 48.1447 17.5563 50.156 17.9983V23.4783C46.2115 22.2878 41.9098 22.2766 37.957 23.4467C34.0041 24.6168 30.635 26.8985 28.4025 29.9175C26.17 32.9364 25.2069 36.5131 25.6712 40.0606C26.1356 43.6081 27.9997 46.9155 30.9577 49.44C33.9157 51.9644 37.7919 53.556 41.9499 53.9534C46.1079 54.3508 50.3008 53.5305 53.8403 51.627C57.3798 49.7235 60.0556 46.85 61.4285 43.4782C62.8015 40.1063 62.79 36.4364 61.3959 33.0709H67.8193C69.1017 37.308 68.7992 41.7812 66.954 45.8644C65.1088 49.9475 61.8134 53.4364 57.529 55.8426C53.2445 58.2488 48.1854 59.452 43.0597 59.2838C37.934 59.1155 32.9982 57.5843 28.9431 54.9043C24.8881 52.2244 21.9166 48.5299 20.4446 44.3378C18.9726 40.1458 19.0738 35.666 20.734 31.5254C22.3942 27.3849 25.5303 23.7907 29.7034 21.2461C33.8765 18.7014 38.8777 17.3335 44.0072 17.3338H43.999ZM52.1974 38.3166C52.1968 39.8198 51.6285 41.2829 50.5768 42.4891C49.525 43.6952 48.0458 44.5801 46.3582 45.0127C44.6707 45.4453 42.8647 45.4025 41.2079 44.8907C39.551 44.3789 38.1316 43.4254 37.1599 42.1713C36.1882 40.9173 35.7159 39.4295 35.8131 37.9285C35.9103 36.4276 36.5718 34.9932 37.6995 33.8381C38.8272 32.683 40.3611 31.8686 42.0739 31.5156C43.7867 31.1626 45.5873 31.2898 47.2087 31.8784L54.2593 25.8633L54.2552 14.711C54.2559 14.0156 54.5803 13.3489 55.157 12.8575L65.4049 4.11474C65.8349 3.74839 66.3824 3.49896 66.9785 3.39795C67.5745 3.29694 68.1922 3.34888 68.7536 3.5472C69.3151 3.74553 69.795 4.08135 70.1329 4.51225C70.4707 4.94315 70.6513 5.4498 70.6519 5.96821V15.5853H81.9246C82.5323 15.5857 83.1262 15.7398 83.6312 16.0281C84.1363 16.3163 84.53 16.7257 84.7624 17.2047C84.9949 17.6837 85.0558 18.2107 84.9374 18.7192C84.819 19.2277 84.5266 19.6948 84.0972 20.0616L73.8492 28.8044C73.2732 29.2964 72.4918 29.5732 71.6767 29.5738H58.6003L51.5497 35.5888C51.9678 36.4281 52.1974 37.3479 52.1974 38.3166ZM70.4018 24.3281L74.501 20.831H67.5734C66.758 20.831 65.976 20.5546 65.3995 20.0628C64.8229 19.5709 64.499 18.9037 64.499 18.2081V12.298L60.4039 15.7951V24.1218C60.4894 24.1875 60.5702 24.2576 60.6458 24.3316H70.4018V24.3281Z" fill="black"/>
<path d="M54.8656 38.8584C54.8656 39.3694 54.8172 39.8709 54.7205 40.3597C54.4563 41.7532 53.8201 43.0419 52.9011 44.1497V44.1529C51.3236 46.0669 48.909 47.4445 46.1149 47.8984C45.2608 48.0376 44.3902 48.0887 43.5217 48.0507H43.4957C43.3208 48.0412 43.146 48.0317 42.9711 48.0158C42.9562 48.0158 42.9413 48.0126 42.9265 48.0126C42.7814 47.9999 42.6363 47.9841 42.4912 47.965C42.4502 47.9587 42.4056 47.9555 42.3647 47.9491C42.253 47.9333 42.1452 47.9174 42.0335 47.8984C41.8587 47.8698 41.6838 47.8381 41.5089 47.8C41.4383 47.7873 41.3638 47.7714 41.2932 47.7555C41.1964 47.7333 41.0997 47.7079 41.003 47.6825C40.9174 47.6603 40.8281 47.6381 40.7388 47.6127C40.6507 47.5906 40.5638 47.5652 40.4784 47.5365L40.2663 47.4698C40.2254 47.4603 40.1882 47.4476 40.1472 47.4318C39.8053 47.3154 39.4701 47.1851 39.1427 47.0413C39.0571 47.0032 38.9753 46.9652 38.8897 46.9239C38.793 46.8795 38.7 46.835 38.6069 46.7874C38.5028 46.7334 38.3986 46.6827 38.2944 46.6255C38.2647 46.6097 38.2349 46.5906 38.2051 46.5747C38.06 46.4954 37.9149 46.4097 37.7773 46.324C37.6582 46.2541 37.5429 46.178 37.4313 46.105C37.4204 46.0985 37.4105 46.091 37.4015 46.0827C37.301 46.0161 37.2043 45.9494 37.1113 45.8796C37.0629 45.8479 37.0146 45.8129 36.9699 45.778L36.862 45.6955C36.8546 45.6923 36.8509 45.6891 36.8471 45.686C36.836 45.6765 36.8248 45.6669 36.8137 45.6606C36.8062 45.6574 36.8025 45.6511 36.7988 45.6479C36.7921 45.6454 36.7868 45.6409 36.7839 45.6352C36.7363 45.6009 36.6903 45.5649 36.6462 45.5273C36.5979 45.4892 36.5532 45.4543 36.5123 45.4162C36.5049 45.4098 36.4974 45.4035 36.4937 45.3971C36.4565 45.3654 36.4193 45.3368 36.3821 45.3083C36.3255 45.26 36.2734 45.2057 36.2184 45.1559L36.2109 45.1495L36.2117 45.1499C36.0874 45.0375 35.9624 44.9261 35.8426 44.8067C35.7533 44.7179 35.664 44.6258 35.5785 44.5306C34.452 43.3066 33.7094 41.8582 33.4206 40.3217C33.3313 39.8455 33.2866 39.3567 33.2866 38.8584C33.2866 36.8999 34.001 35.0843 35.2287 33.5924C36.4156 32.1387 38.0861 30.9928 40.0393 30.3231C41.2857 29.8882 42.6474 29.6533 44.0761 29.6533C45.501 29.6533 46.8628 29.8882 48.1054 30.3199C49.043 30.6373 49.9136 31.069 50.6986 31.5959C50.9069 31.7324 51.1116 31.8784 51.3088 32.0339H51.3125C51.5097 32.1863 51.6994 32.345 51.8817 32.5101C52.1608 32.7545 52.4175 33.0116 52.6593 33.2846C52.7374 33.3734 52.8193 33.4655 52.8937 33.5575V33.5607C52.8937 33.5607 52.8937 33.5575 52.8974 33.5607C53.0834 33.7797 53.2583 34.0114 53.4146 34.2495C53.4704 34.3288 53.5225 34.4082 53.5746 34.4907C53.6378 34.5891 53.6973 34.6844 53.7494 34.7828C53.7903 34.8494 53.8275 34.9161 53.8648 34.9859C53.9243 35.0875 53.9764 35.189 54.0247 35.2906C54.0843 35.4049 54.1363 35.5192 54.1847 35.6366C54.2256 35.7255 54.2628 35.8144 54.2963 35.9064C54.3261 35.9794 54.3559 36.0556 54.3856 36.1349C54.4228 36.2365 54.4563 36.3381 54.4898 36.4397C54.5121 36.5127 54.5344 36.5825 54.553 36.6555C54.62 36.8809 54.6758 37.1062 54.7167 37.3379C54.7316 37.4046 54.7428 37.4713 54.754 37.5411C54.7726 37.6427 54.7874 37.7474 54.7986 37.849C54.806 37.8934 54.8135 37.9379 54.8172 37.9791C54.8284 38.0902 54.8395 38.2013 54.8432 38.3156C54.8507 38.3632 54.8544 38.4076 54.8544 38.4553C54.8618 38.5886 54.8656 38.7219 54.8656 38.8584V38.8584Z" fill="white"/>
<path d="M54.8656 38.8582C54.8656 39.3693 54.8172 39.8708 54.7205 40.3596C54.4563 41.7531 53.8201 43.0418 52.9011 44.1495V44.1527C51.3236 46.0667 48.909 47.4443 46.1149 47.8982C45.2608 48.0375 44.3902 48.0886 43.5217 48.0506H43.4957C43.3208 48.0411 43.146 48.0315 42.9711 48.0157C42.9562 48.0157 42.9413 48.0125 42.9265 48.0125C42.7814 47.9998 42.6363 47.9839 42.4912 47.9649C42.4502 47.9585 42.4056 47.9554 42.3647 47.949C42.253 47.9331 42.1451 47.9173 42.0335 47.8982C41.8587 47.8697 41.6838 47.8379 41.5089 47.7998C41.4383 47.7871 41.3638 47.7713 41.2932 47.7554C41.1964 47.7332 41.0997 47.7078 41.003 47.6824C40.9174 47.6602 40.8281 47.6379 40.7388 47.6126C40.6507 47.5905 40.5638 47.5651 40.4784 47.5364L40.2663 47.4697C40.2254 47.4602 40.1882 47.4475 40.1472 47.4316C40.0021 47.3808 39.857 47.3301 39.7157 47.2761C39.6189 47.238 39.5222 47.1999 39.4292 47.1618C39.3324 47.1237 39.2394 47.0825 39.1427 47.0412C39.0571 47.0031 38.9753 46.965 38.8897 46.9238C38.793 46.8793 38.7 46.8349 38.6069 46.7873C38.5028 46.7333 38.3986 46.6825 38.2944 46.6254C38.2647 46.6095 38.2349 46.5905 38.2051 46.5746C38.06 46.4952 37.9149 46.4095 37.7773 46.3238C37.6582 46.254 37.5429 46.1778 37.4313 46.1048C37.4204 46.0983 37.4105 46.0909 37.4015 46.0826C37.301 46.016 37.2043 45.9493 37.1113 45.8795C37.0061 45.8033 36.9019 45.726 36.7988 45.6477C36.7921 45.6453 36.7868 45.6407 36.7839 45.6351C36.6872 45.5557 36.5867 45.4795 36.4937 45.397C36.397 45.3145 36.304 45.2319 36.2109 45.1494C37.6954 45.8922 39.4106 46.3461 41.2411 46.4032C41.3824 46.4095 41.5238 46.4127 41.6652 46.4127C44.1803 46.4127 46.4981 45.6795 48.3324 44.4447C50.5609 42.9497 52.0826 40.7215 52.3951 38.1853C52.4361 37.8647 52.4547 37.5378 52.4547 37.2077C52.4547 36.5506 52.3728 35.9126 52.2203 35.2968V35.2937C51.8148 33.6615 50.8951 32.1547 49.5601 30.9355C49.9545 31.1355 50.3377 31.3577 50.6986 31.5958C50.9069 31.7354 51.1116 31.8814 51.3088 32.0338C51.3088 32.0338 51.3088 32.0306 51.3125 32.0338C51.5097 32.1893 51.6994 32.3449 51.8817 32.5099C52.2463 32.8369 52.5886 33.1892 52.8937 33.5606C53.0797 33.7828 53.2546 34.0113 53.4146 34.2494C53.4704 34.3287 53.5225 34.4081 53.5745 34.4906C53.6378 34.589 53.6973 34.6842 53.7494 34.7826C53.7903 34.8493 53.8275 34.9159 53.8647 34.9858C53.9243 35.0873 53.9764 35.1889 54.0247 35.2905C54.0843 35.4048 54.1363 35.519 54.1847 35.6365C54.2256 35.7253 54.2628 35.8142 54.2963 35.9063C54.3261 35.9793 54.3559 36.0555 54.3856 36.1348C54.4228 36.2364 54.4563 36.338 54.4898 36.4395C54.5121 36.5125 54.5344 36.5824 54.553 36.6554C54.62 36.8807 54.6758 37.1061 54.7167 37.3378C54.7316 37.4045 54.7428 37.4711 54.7539 37.541C54.7725 37.6425 54.7874 37.7473 54.7986 37.8489C54.806 37.8933 54.8135 37.9377 54.8172 37.979C54.8284 38.0901 54.8395 38.2012 54.8432 38.3155C54.8507 38.3631 54.8544 38.4075 54.8544 38.4551C54.8618 38.5884 54.8656 38.7217 54.8656 38.8582V38.8582Z" fill="#D0CFCE"/>
<path d="M43.4202 36.3422L41.1298 37.7617C40.9391 37.8799 40.7972 38.0465 40.7243 38.2378C40.6515 38.429 40.6515 38.6351 40.7243 38.8263L41.5994 41.1231C41.6722 41.3144 41.8141 41.481 42.0048 41.5992C42.1955 41.7174 42.4251 41.7811 42.6608 41.7811H45.4914C45.7271 41.7812 45.9569 41.7175 46.1476 41.5993C46.3384 41.4811 46.4804 41.3144 46.5532 41.1231L47.4275 38.8263C47.5003 38.6351 47.5003 38.429 47.4275 38.2378C47.3546 38.0465 47.2127 37.8799 47.022 37.7617L44.732 36.3422C44.5414 36.2241 44.3117 36.1604 44.0761 36.1604C43.8404 36.1604 43.6108 36.2241 43.4202 36.3422V36.3422ZM47.9008 30.6627L44.7718 31.9705C44.5523 32.0593 44.3142 32.1038 44.0761 32.1006C43.864 32.0974 43.652 32.0562 43.451 31.9768L40.2477 30.6754C40.0914 30.6119 40.0096 30.4627 40.0393 30.3231C41.2857 29.8882 42.6474 29.6533 44.0761 29.6533C45.501 29.6533 46.8628 29.8882 48.1054 30.3199C48.1352 30.4564 48.057 30.5992 47.9008 30.6627ZM42.0335 47.8984C41.8587 47.8698 41.6838 47.838 41.5089 47.8C41.4383 47.7873 41.3638 47.7714 41.2932 47.7555C41.1964 47.7333 41.0997 47.7079 41.003 47.6825C40.9174 47.6603 40.8281 47.6381 40.7388 47.6127C40.6507 47.5906 40.5638 47.5652 40.4784 47.5365L40.2663 47.4698C40.2254 47.4603 40.1882 47.4476 40.1472 47.4318C40.0021 47.381 39.857 47.3302 39.7157 47.2762C39.5214 47.2032 39.3313 47.1239 39.1431 47.041C39.0575 47.0036 38.9738 46.9642 38.8897 46.9248C38.7945 46.8804 38.7 46.8344 38.6069 46.7874C38.5017 46.7352 38.3975 46.6814 38.2944 46.6262C38.2639 46.6097 38.2345 46.5919 38.2044 46.5751C37.0392 45.9316 36.0302 45.1028 35.2324 44.1338C35.3031 44.0259 35.4482 43.9592 35.6082 43.9751L39.0832 44.337C39.3213 44.3624 39.5445 44.4322 39.738 44.5433C39.9203 44.648 40.0765 44.7845 40.1919 44.9464L41.2411 46.4033L42.0559 47.5397C42.1377 47.6539 42.1265 47.7968 42.0335 47.8984V47.8984ZM36.3226 37.3887C36.2691 37.5752 36.1688 37.7496 36.0286 37.8998L33.8335 40.2169C33.7294 40.3248 33.5619 40.3629 33.4206 40.3217C33.3313 39.8455 33.2866 39.3567 33.2866 38.8584C33.2866 36.8999 34.001 35.0843 35.2287 33.5924C35.385 33.6083 35.5226 33.7035 35.5561 33.8432L36.33 36.8047C36.3821 36.9983 36.3784 37.1983 36.3226 37.3887ZM52.9011 44.1497V44.1529C51.3236 46.0669 48.909 47.4445 46.1149 47.8984C46.0182 47.7968 46.007 47.6508 46.0889 47.5333L47.9454 44.9496C48.0649 44.7836 48.2266 44.6427 48.4185 44.5372C48.6104 44.4318 48.8276 44.3644 49.0541 44.3401L52.5179 43.9783C52.6816 43.9624 52.8304 44.0354 52.9011 44.1497V44.1497ZM54.8656 38.8584C54.8656 39.3694 54.8172 39.8709 54.7205 40.3597C54.6525 40.3728 54.5816 40.3693 54.5158 40.3497C54.45 40.33 54.392 40.295 54.3484 40.2486L52.3951 38.1854L52.1236 37.8998C51.9796 37.7486 51.878 37.5713 51.8264 37.3816C51.7748 37.1918 51.7747 36.9945 51.8259 36.8047L52.2203 35.297V35.2938L52.6072 33.8051C52.637 33.6813 52.7523 33.5861 52.8937 33.5607C52.8937 33.5575 52.8937 33.5575 52.8974 33.5607C53.0834 33.7797 53.2583 34.0114 53.4146 34.2495C53.4704 34.3288 53.5225 34.4082 53.5746 34.4907C53.6378 34.5891 53.6973 34.6844 53.7494 34.7828C53.7903 34.8494 53.8275 34.9161 53.8648 34.9859C53.9243 35.0875 53.9764 35.189 54.0247 35.2906C54.0843 35.4049 54.1363 35.5192 54.1847 35.6366C54.2256 35.7255 54.2628 35.8144 54.2963 35.9064C54.3261 35.9794 54.3559 36.0556 54.3856 36.1349C54.4228 36.2365 54.4563 36.3381 54.4898 36.4397C54.5121 36.5127 54.5344 36.5825 54.553 36.6555C54.62 36.8809 54.6758 37.1062 54.7167 37.3379C54.7316 37.4046 54.7428 37.4713 54.754 37.5411C54.7726 37.6427 54.7874 37.7474 54.7986 37.849C54.806 37.8934 54.8135 37.9379 54.8172 37.9791C54.8284 38.0902 54.8395 38.2013 54.8432 38.3156C54.8507 38.3632 54.8544 38.4076 54.8544 38.4552C54.8618 38.5886 54.8656 38.7219 54.8656 38.8584V38.8584Z" fill="black"/>
</g>
<defs>
<filter id="filter0_d_104_4874" x="-0.000976562" y="0.338379" width="96" height="83.9565" filterUnits="userSpaceOnUse" color-interpolation-filters="sRGB">
<feFlood flood-opacity="0" result="BackgroundImageFix"/>
<feColorMatrix in="SourceAlpha" type="matrix" values="0 0 0 0 0 0 0 0 0 0 0 0 0 0 0 0 0 0 127 0" result="hardAlpha"/>
<feOffset dx="4" dy="4"/>
<feGaussianBlur stdDeviation="3.5"/>
<feComposite in2="hardAlpha" operator="out"/>
<feColorMatrix type="matrix" values="0 0 0 0 1 0 0 0 0 1 0 0 0 0 1 0 0 0 0.42 0"/>
<feBlend mode="normal" in2="BackgroundImageFix" result="effect1_dropShadow_104_4874"/>
<feBlend mode="normal" in="SourceGraphic" in2="effect1_dropShadow_104_4874" result="shape"/>
</filter>
</defs>
</svg>
