<svg width="814" height="612" viewBox="0 0 814 612" fill="none" xmlns="http://www.w3.org/2000/svg">
<g clip-path="url(#clip0_57_2367)">
<path d="M152.59 249.718C152.59 256.83 150.706 263.509 147.415 269.28H34.7678C33.3399 265.678 32.5601 261.754 32.5601 257.647C32.5601 240.124 46.8093 225.919 64.4005 225.919C69.5351 225.919 74.376 227.14 78.6599 229.279C85.6275 217.768 98.2969 210.06 112.779 210.06C134.766 210.06 152.59 227.816 152.59 249.718Z" fill="#74B297"/>
<path d="M768.213 269.28H189.777C189.787 267.706 189.98 266.102 190.344 264.508C192.866 253.532 203.054 246.268 213.992 247.065C214.043 246.833 214.083 246.611 214.134 246.379C217.83 230.288 233.912 220.23 250.066 223.912C262.026 226.636 270.655 236.129 272.842 247.398C279.435 241.587 288.641 238.913 297.877 241.022C304.672 242.565 310.324 246.439 314.202 251.595C316.329 250.253 318.689 249.254 321.17 248.669C325.059 235.524 337.262 225.919 351.724 225.919C356.849 225.919 361.69 227.14 365.984 229.279C372.951 217.768 385.621 210.06 400.103 210.06C411.04 210.06 420.955 214.459 428.145 221.571C435.852 211.291 448.157 204.643 462.032 204.643C471.237 204.643 479.744 207.579 486.692 212.562C491.158 200.426 502.865 191.76 516.598 191.76C531.657 191.76 544.266 202.171 547.588 216.154C558.637 198.337 580.188 188.612 601.83 193.545C621.963 198.136 636.506 214.116 640.182 233.102C651.282 223.317 666.797 218.817 682.353 222.358C693.797 224.971 703.316 231.488 709.828 240.174C718.112 234.928 728.412 232.86 738.742 235.211C755.401 239.004 766.987 253.148 768.213 269.28Z" fill="#74B297"/>
</g>
<g clip-path="url(#clip1_57_2367)">
<path d="M222.777 202.388H224.804V315.961H222.777V202.388Z" fill="#BBBDC7"/>
<path d="M252.426 202.388H254.453V315.961H252.426V202.388Z" fill="#BBBDC7"/>
<path d="M282.073 202.388H284.1V315.961H282.073V202.388Z" fill="#BBBDC7"/>
<path d="M311.721 202.388H313.748V315.961H311.721V202.388Z" fill="#BBBDC7"/>
<path d="M341.368 202.388H343.395V315.961H341.368V202.388Z" fill="#BBBDC7"/>
<path d="M371.017 202.388H373.044V315.961H371.017V202.388Z" fill="#BBBDC7"/>
<path d="M199.47 304.079H396.35V306.103H199.47V304.079Z" fill="#BBBDC7"/>
<path d="M199.47 274.479H396.35V276.503H199.47V274.479Z" fill="#BBBDC7"/>
<path d="M199.47 244.88H396.35V246.904H199.47V244.88Z" fill="#BBBDC7"/>
<path d="M199.47 215.279H396.35V217.303H199.47V215.279Z" fill="#BBBDC7"/>
<path d="M400.68 315.96H391.559V206.739H204.263V315.96H195.141V197.632H400.68V315.96Z" fill="#BBBDC7"/>
<path d="M400.68 316.466H391.558C391.279 316.466 391.052 316.24 391.052 315.961V207.245H204.769V315.961C204.769 316.24 204.542 316.466 204.263 316.466H195.141C194.861 316.466 194.634 316.24 194.634 315.961V197.632C194.634 197.353 194.861 197.126 195.141 197.126H400.68C400.96 197.126 401.187 197.353 401.187 197.632V315.961C401.187 316.24 400.96 316.466 400.68 316.466ZM392.065 315.455H400.173V198.138H195.648V315.455H203.756V206.739C203.756 206.46 203.983 206.233 204.263 206.233H391.558C391.838 206.233 392.065 206.46 392.065 206.739V315.455Z" fill="#BBBDC7"/>
</g>
<g clip-path="url(#clip2_57_2367)">
<path d="M349.002 510C349.002 516.76 343.388 522.24 336.463 522.24H182.462C175.536 522.24 169.922 516.76 169.922 510H349.002Z" fill="#EFF0F2"/>
</g>
<g clip-path="url(#clip3_57_2367)">
<path d="M278.783 293.933L283.359 311.656L294.194 403.328C294.194 403.328 264.133 409.013 264.045 408.483L235.296 314.1C233.543 308.342 237.121 302.322 242.999 301.138L278.783 293.933Z" fill="#C78982"/>
<path d="M239.625 426.643L261.954 448.217L293.304 407.446C295.868 403.142 294.012 397.557 289.388 395.66L272.845 388.876L243.733 421.023C242.01 422.779 240.623 424.677 239.625 426.643Z" fill="#C78982"/>
<path opacity="0.1" d="M293.302 407.445L265.95 443.016L243.137 472.685L233.827 485.133L225.522 496.236L224.466 497.643L224.1 498.142C223.928 498.061 222.557 497.49 220.659 496.715C219.917 496.409 219.105 496.073 218.242 495.726C216.719 495.094 215.075 494.421 213.511 493.789C209.978 492.341 206.922 491.108 206.922 491.108L207.054 490.853L209.247 486.53L210.689 483.685L213.613 477.915L214.526 476.131L217.582 470.095L223.187 459.054L239.624 426.643C240.223 425.47 240.954 424.318 241.817 423.207C242.406 422.463 243.046 421.729 243.736 421.025L261.788 401.083L235.299 314.097C233.543 308.347 237.116 302.322 242.995 301.139L278.783 293.931L283.362 311.661L293.81 400.054C294.774 402.358 294.702 405.09 293.302 407.445Z" fill="#1D2445"/>
<path d="M265.949 443.016L243.136 472.685L233.826 485.133L225.521 496.236L224.465 497.643L224.099 498.142C223.927 498.061 222.556 497.49 220.658 496.715C219.916 496.409 219.104 496.073 218.241 495.726C216.718 495.094 215.074 494.421 213.51 493.789C209.977 492.341 206.921 491.107 206.921 491.107L207.053 490.853L209.246 486.53L210.688 483.685L213.612 477.915L214.525 476.131L217.581 470.095L223.186 459.054L239.623 426.643C240.222 425.47 240.953 424.318 241.816 423.207L265.949 443.016Z" fill="#013B84"/>
<path d="M236.226 277.832L240.783 262.524L245.231 257.812L243.191 254.431L247.292 240.653C248.546 236.438 250.513 232.472 253.107 228.928L256.107 227.887L258.811 221.135L263.701 214.455C267.864 208.767 273.2 204.047 279.343 200.616L281.672 199.315C284.226 197.89 287.249 197.486 290.051 198.317C299.733 201.19 306.342 209.011 309.536 219.285C313.544 232.177 314.451 247.973 311.038 248.891C304.873 250.549 287.779 294.949 287.779 294.949L244.12 289.867C238.335 289.195 234.558 283.436 236.226 277.832Z" fill="#013B84"/>
<path d="M257.557 296.7L270.254 302.176C270.832 302.425 271.252 302.941 271.382 303.559L272.723 309.954C272.868 310.648 272.624 311.368 272.086 311.829L265.831 317.187C265.337 317.61 264.573 317.382 264.388 316.757L264.108 315.806C263.759 314.621 264.086 313.34 264.96 312.47L267.196 310.246L266.246 306.132L263.69 305.235L258.402 310.055C257.418 310.952 256.069 311.325 254.766 311.061L242.073 308.486L245.342 295.819L256.208 296.384C256.672 296.409 257.13 296.516 257.557 296.7Z" fill="#C78982"/>
<path d="M303.348 168.889C303.361 163.193 310.762 158.592 319.879 158.613C327.656 158.632 334.169 162.007 335.907 166.535C336.357 167.708 335.455 168.964 334.205 168.961L303.348 168.889Z" fill="#002652"/>
<path d="M304.615 160.836C304.626 155.986 310.927 152.07 318.688 152.087C325.309 152.103 330.854 154.977 332.333 158.832C332.716 159.83 331.949 160.899 330.884 160.896L304.615 160.836Z" fill="#002652"/>
<path d="M325.662 172.464L325.737 193.867C325.668 196.397 323.163 198.126 320.786 197.284L298.738 189.471L325.662 172.464Z" fill="#C78982"/>
<path d="M323.896 185.464L327.67 185.381C329.243 185.346 330.021 183.449 328.929 182.312L324.15 177.339L323.896 185.464Z" fill="#C78982"/>
<path d="M313.215 159.097L312.729 159.083C310.677 159.027 308.969 160.651 308.913 162.712L308.56 175.666L325.761 176.139L325.86 172.511C326.057 165.299 320.396 159.293 313.215 159.097Z" fill="#C78982"/>
<path d="M301.38 171.845L319.656 180.242L302.792 217.254C302.457 217.99 301.445 218.06 301.012 217.379L288.821 198.177L294.256 187.478L301.38 171.845Z" fill="#C78982"/>
<path d="M325.491 187.437L314.708 187.14L315.083 173.374L325.866 173.671L325.491 187.437Z" fill="#C78982"/>
<path d="M308.637 156.402L303.531 156.39C297.951 156.377 293.418 160.909 293.405 166.512L293.347 191.875L325.82 191.949L325.862 173.778C325.883 164.205 318.171 156.425 308.637 156.402Z" fill="#C78982"/>
<path opacity="0.1" d="M325.625 176.409L323.154 176.403C322.867 176.402 322.592 176.516 322.388 176.72L321.357 177.751C320.674 178.434 321.154 179.607 322.119 179.609L325.705 179.617" fill="#1D2445"/>
<path d="M312.208 180.164L312.199 184.007C312.191 187.55 314.283 190.757 317.52 192.165C317.527 189.386 319.775 187.139 322.542 187.145L325.831 187.152L325.814 194.156C325.808 196.709 323.245 198.456 320.88 197.517L311.508 193.798C310.128 193.251 309.223 191.91 309.226 190.421L309.256 177.186C310.891 177.19 312.213 178.524 312.208 180.164Z" fill="#002652"/>
<path d="M322.042 192.878L324.525 193.46C325.186 193.615 325.817 193.112 325.819 192.431L325.826 189.414L323.446 189.409C322.17 189.406 321.134 190.442 321.131 191.722C321.129 192.274 321.507 192.753 322.042 192.878Z" fill="#C78982"/>
<path d="M296.195 189.402L304.207 192.999L304.286 158.902C304.291 156.901 302.678 155.275 300.685 155.271L299.062 155.267C291.33 155.249 285.397 162.15 286.544 169.83L287.812 178.321C288.543 183.209 291.702 187.386 296.195 189.402Z" fill="#002652"/>
<path d="M296.874 159.835L309.502 159.865L309.44 187.013C309.432 190.519 306.596 193.353 303.106 193.345L296.797 193.33L296.874 159.835Z" fill="#002652"/>
<path d="M305.167 157.48L320.036 157.515L320.016 166.029C320.007 170.031 316.768 173.268 312.784 173.259L305.131 173.242L305.167 157.48Z" fill="#002652"/>
<path d="M298.998 177.575C299.011 171.878 291.631 167.244 282.515 167.222C274.737 167.204 268.209 170.55 266.451 175.07C265.996 176.24 266.891 177.5 268.142 177.503L298.998 177.575Z" fill="#002652"/>
<path d="M305.116 184.835C305.128 179.538 298.267 175.23 289.791 175.211C282.56 175.194 276.491 178.305 274.856 182.506C274.432 183.594 275.266 184.766 276.428 184.769L305.116 184.835Z" fill="#002652"/>
<path d="M301.127 189.174C305.526 189.184 306.891 183.237 302.949 181.275C300.803 180.207 298.201 179.578 295.395 179.572C289.109 179.558 283.83 182.669 282.408 186.873C282.04 187.96 282.763 189.132 283.775 189.135L301.127 189.174Z" fill="#002652"/>
<path d="M303.379 193.374C306.62 193.381 307.625 189.001 304.721 187.555C303.14 186.768 301.222 186.305 299.155 186.3C294.525 186.29 290.636 188.583 289.588 191.678C289.317 192.479 289.85 193.343 290.595 193.344L303.379 193.374Z" fill="#002652"/>
<path d="M303.349 168.163C303.362 162.467 295.982 157.833 286.866 157.811C279.089 157.793 272.561 161.139 270.802 165.658C270.347 166.829 271.243 168.089 272.494 168.092L303.349 168.163Z" fill="#002652"/>
<path d="M317.438 161.312C317.451 155.616 310.071 150.981 300.954 150.96C293.177 150.942 286.649 154.288 284.891 158.807C284.436 159.978 285.331 161.238 286.582 161.241L317.438 161.312Z" fill="#002652"/>
<path d="M285.07 300.75L292.855 385.528L254.666 387.704L243.621 309.352L285.07 300.75Z" fill="#F5F5F5"/>
<path d="M387.615 294.143C387.135 295.057 385.945 295.546 384.716 295.245L366.445 289.189L365.641 282.87L387.25 293.274C387.588 293.407 387.754 293.789 387.622 294.128C387.619 294.133 387.616 294.138 387.615 294.143Z" fill="#C78982"/>
<path d="M384.149 295.356C383.809 296.332 382.705 296.993 381.444 296.878L362.481 293.608L360.752 287.479L383.66 294.553C384.013 294.634 384.234 294.986 384.153 295.342C384.152 295.346 384.151 295.351 384.149 295.356Z" fill="#C78982"/>
<path d="M380.435 296.397C380.205 297.405 379.181 298.184 377.915 298.209L358.707 297.064L356.314 291.163L379.86 295.652C380.22 295.693 380.478 296.02 380.438 296.381C380.437 296.387 380.438 296.392 380.435 296.397Z" fill="#C78982"/>
<path d="M375.217 297.391C375.064 298.365 374.112 299.146 372.866 299.21L358.824 298.842C355.78 298.762 352.978 296.984 351.62 294.269L351.044 293.118L374.593 296.692C374.952 296.721 375.231 297.026 375.218 297.374C375.217 297.379 375.217 297.385 375.217 297.391Z" fill="#C78982"/>
<path d="M357.337 297.833L362.637 290.374C363.807 287.082 362.08 283.427 358.802 282.254L353.816 280.468C350.537 279.294 342.062 280.512 340.891 283.804L348.161 293.384C349.034 294.534 350.166 295.462 351.463 296.088L355.862 298.213C356.381 298.463 357.004 298.302 357.337 297.833Z" fill="#C78982"/>
<path d="M349.623 280.24L365.617 285.968L364.421 285.468C364.308 285.419 364.197 285.362 364.089 285.294C362.989 284.608 362.653 283.155 363.332 282.048L363.343 282.005C363.775 281.315 364.482 280.843 365.285 280.714L369.127 280.117C370.098 279.976 371.02 279.572 371.781 278.949C372.289 278.508 372.706 277.987 372.901 277.437C373.004 277.145 373.048 276.845 373.008 276.542C373 276.502 372.993 276.461 372.982 276.423C372.836 275.929 372.32 275.647 371.829 275.793L360.091 278.078L357.241 277.991C355.493 277.93 353.756 278.288 352.171 279.035L349.791 280.168C349.735 280.196 349.68 280.219 349.623 280.24Z" fill="#C78982"/>
<path d="M355.857 297.791C360.928 299.713 366.354 297.338 367.978 292.488C369.602 287.638 369.182 284.497 361.739 280.226C357.034 277.527 351.242 280.679 349.619 285.529C347.994 290.379 350.787 295.87 355.857 297.791Z" fill="#C78982"/>
<path d="M355.824 283.996L322.599 264.025L306.348 272.805L309.918 277.846C311.994 279.663 314.417 281.038 317.038 281.885L350.698 294.328L355.824 283.996Z" fill="#C78982"/>
<path d="M318.613 278.656C315.665 281.037 311.097 280.059 308.41 276.472L278.334 236.319C273.407 229.741 273.795 220.868 279.2 216.5L280.673 215.31C284.046 212.586 289.271 213.705 292.344 217.808L330.641 268.937L318.613 278.656Z" fill="#C78982"/>
<path d="M273.593 296.499L284.46 309.886L265.622 407.041C264.813 411.215 260.574 413.756 256.533 412.49C252.159 411.121 246.705 409.3 242.454 407.86C238.321 406.461 235.532 402.584 235.503 398.204L234.823 297.983L273.593 296.499Z" fill="#C78982"/>
<path d="M238.364 434.422V434.412L235.491 399.248C235.328 397.179 236.11 395.15 237.623 393.733L249.126 382.946C253.532 380.591 259.005 382.732 260.66 387.463L271.117 434.412C271.117 434.412 270.044 436.609 266.921 436.805C260.515 437.206 249.761 437.768 243.761 437.455C241.147 437.317 238.42 434.976 238.364 434.422Z" fill="#C78982"/>
<path d="M285.637 304.014L271.575 381.717L232.487 379.041L233.574 308.155C233.627 304.74 236.469 302.041 239.866 302.176L285.637 304.014Z" fill="#F5F5F5"/>
<path d="M294.013 268.331L287.807 300.25L288.439 327.512L233.426 319.905L233.66 296.245C233.727 289.45 234.753 282.701 236.705 276.196L242.219 257.823L294.013 268.331Z" fill="#013B84"/>
<path d="M261.38 224.937L285.423 207.289L311.784 243.504L287.742 261.151L261.38 224.937Z" fill="#013B84"/>
<path opacity="0.1" d="M271.169 379.969L278.396 341.749C278.639 340.46 279.485 339.368 280.668 338.814L286.398 336.128L271.169 379.969Z" fill="#1D2445"/>
<path d="M247.527 263.783C239.093 261.053 238.68 249.566 242.654 237.017C246.787 224.145 253.989 215.348 262.423 218.08C271.108 220.891 271.183 232.57 267.29 244.693C262.917 258.315 255.811 266.465 247.577 263.799L247.527 263.783ZM250.192 255.999C253.155 256.958 256.379 252.438 259.616 242.359C262.765 232.551 262.871 226.87 259.808 225.879C256.946 224.952 253.543 229.339 250.328 239.352C246.998 249.551 247.231 255.04 250.142 255.984L250.192 255.999Z" fill="#7CA6B3"/>
<path d="M285.901 498.876C285.728 498.958 284.418 499.641 282.611 500.609C281.9 500.987 281.129 501.405 280.306 501.843C278.855 502.618 277.281 503.464 275.799 504.259C272.438 506.074 269.534 507.634 269.534 507.634L269.423 507.379L267.514 502.924L266.255 499.988L263.707 494.044L262.925 492.198L260.255 485.979L255.381 474.601L240.04 441.181C239.177 439.163 238.609 436.869 238.365 434.422V434.412H271.118L278.57 467.903L282.154 483.043L285.352 496.552L285.759 498.265L285.901 498.876Z" fill="#013B84"/>
<path d="M303.174 510.049L307.64 507.378C308.871 506.641 309.728 505.382 309.918 504.03C310.196 502.043 308.977 500.358 307.057 500.076L298.588 498.837C293.235 498.053 288.82 494.926 286.486 490.265L283.693 484.687L279.977 486.786C279.082 487.291 278.62 488.338 278.904 489.219L279.718 491.74L274.623 493.748C271.172 495.108 267.512 494.482 265.195 492.134L261.617 488.51C260.991 487.875 259.795 488.351 259.611 489.309L256.485 505.617L256.661 507.148C256.812 508.467 257.916 509.468 259.239 509.485L303.174 510.049Z" fill="#183239"/>
<path d="M256.098 506.69L256.629 508.304C257.585 511.207 260.235 513.06 263.431 513.06H297.416C298.069 513.06 298.735 512.891 299.35 512.57L305.632 509.281C306.103 509.034 305.928 508.318 305.397 508.318H279.487C278.992 508.318 278.543 508.123 278.236 507.777C276.697 506.033 274.443 505.057 271.954 505.057H257.359C256.521 505.056 255.847 505.93 256.098 506.69Z" fill="#F5F5F5"/>
<path d="M202.122 488.545L213.208 499.154L227.24 512.582C228.07 512.611 232.868 512.283 232.868 512.283L237.132 498.482L236.335 498.015C233.886 496.581 232.434 493.897 232.569 491.054L233.142 486.166L230.697 485.661C229.79 485.476 228.894 486.005 228.607 486.885L227.793 489.408L223.127 487.67C219.967 486.497 217.748 483.611 217.418 480.244L216.906 475.041C216.818 474.133 215.718 473.727 215.063 474.363L208.75 480.516L204.306 484.85L203.923 485.223L202.122 488.545Z" fill="#5894DF"/>
<path d="M213.644 494.73L216.104 505.008L233.727 509.623L245.956 509.874H245.986L246.176 509.75L248.533 508.237L249.912 507.35C250.996 506.655 251.654 505.457 251.664 504.168C251.671 503.219 251.329 502.343 250.754 501.663C250.178 500.987 249.365 500.51 248.433 500.369L240.191 499.121C237.572 498.725 235.1 497.762 232.936 496.338C230.798 494.929 228.953 493.062 227.554 490.842L220.903 487.47C220.112 487.945 219.803 488.941 220.185 489.787L221.278 492.201L216.668 494.083C215.687 494.487 214.661 494.701 213.644 494.73Z" fill="#183239"/>
<path d="M223.539 508.047L223.504 512.575L240.342 512.704C240.966 512.709 241.58 512.553 242.128 512.251L248.151 508.905C248.471 508.728 248.348 508.239 247.982 508.236L223.539 508.047Z" fill="#F5F5F5"/>
<path d="M203.982 494.979L214.572 504.857L222.672 512.414C224.174 512.469 225.769 512.525 227.238 512.584C228.068 512.612 228.856 512.644 229.571 512.67L217.816 501.701C217.47 501.378 217.264 500.931 217.237 500.457C217.177 499.269 216.888 498.11 216.396 497.05C215.902 495.99 215.209 495.021 214.337 494.21L211.36 491.43L204.306 484.851L204.129 484.686C203.545 484.142 202.592 484.394 202.349 485.157L201.835 486.778C200.911 489.698 201.747 492.89 203.982 494.979Z" fill="#F5F5F5"/>
</g>
<g clip-path="url(#clip4_57_2367)">
<path d="M609.482 506.94C609.482 514.826 602.943 521.22 594.877 521.22H415.501C407.434 521.22 400.895 514.826 400.895 506.94H609.482Z" fill="#EFF0F2"/>
</g>
<g clip-path="url(#clip5_57_2367)">
<path d="M568.641 418.106C568.651 420.192 544.647 414.045 544.647 414.045L542.908 410.992L546.01 379.3L571.642 380.674L571.682 410.992L568.641 418.106Z" fill="#99644C"/>
<path d="M571.692 418.106C571.703 420.192 571.357 422.269 570.696 424.243L559.65 456.861L555.897 467.964L553.842 474.04L553.232 475.832L551.269 481.643L550.302 484.503L548.828 488.858L548.746 489.103C548.746 489.103 530.53 491.23 530.357 491.23L533.54 473.877L535.615 460.199L542.613 414.045L542.908 410.992H571.682L571.692 418.106Z" fill="#7CA6B3"/>
<path d="M574.697 279.022L576.087 281.467C580.113 288.553 581.147 296.954 578.959 304.806L577.603 309.669L571.609 388.061C571.609 388.061 545.872 384.71 545.83 384.217L537.318 283.344L574.697 279.022Z" fill="#99644C"/>
<path d="M547.839 293.786L548.458 296.53C550.249 304.481 548.794 312.818 544.417 319.692L541.703 323.952L514.195 396.388L491.999 397.203L490.636 387.995C490.46 386.807 490.495 385.598 490.737 384.422L493.769 369.72L497.838 364.786L510.822 287.033L547.839 293.786Z" fill="#99644C"/>
<path d="M498.633 420.681L493.711 412.844L490.781 385.987L516.148 382.068L522.637 412.844L520.817 418.696C521.244 420.742 498.633 420.681 498.633 420.681Z" fill="#99644C"/>
<path d="M525.824 506.784H548.907L550.259 503.014C551.351 499.967 551.649 496.692 551.124 493.497L550.431 489.268L540.492 483.663L530.491 489.268L525.493 497.175C524.709 498.417 524.302 499.859 524.323 501.328L524.379 505.359C524.39 506.149 525.033 506.784 525.824 506.784Z" fill="#002652"/>
<path d="M528.385 512.04H545.269C546.22 512.04 547.066 511.521 547.372 510.748L549.081 506.435H524.573L526.282 510.748C526.588 511.52 527.434 512.04 528.385 512.04Z" fill="#7CA6B3"/>
<path d="M536.908 481.499H547.106C548.158 481.499 548.838 482.352 548.628 483.404L546.649 493.258C546.438 494.31 545.415 495.163 544.363 495.163H534.164C533.113 495.163 532.432 494.31 532.643 493.258L534.621 483.404C534.833 482.352 535.857 481.499 536.908 481.499Z" fill="#002652"/>
<path d="M538.577 503.631H535.076C533.632 503.631 532.45 504.814 532.45 506.259C532.45 507.704 533.632 508.887 535.076 508.887H538.577C540.021 508.887 541.203 507.704 541.203 506.259C541.203 504.814 540.021 503.631 538.577 503.631Z" fill="#7CA6B3"/>
<path d="M401.001 301.352C401.636 302.164 402.896 302.432 404.055 301.916L420.993 292.709L420.664 286.358L401.208 300.433C400.899 300.623 400.802 301.028 400.993 301.337C400.996 301.342 400.999 301.346 401.001 301.352Z" fill="#99644C"/>
<path d="M404.634 301.926C405.142 302.823 406.347 303.276 407.57 302.937L425.685 296.343L426.301 290.014L404.974 301.047C404.639 301.19 404.484 301.576 404.627 301.91C404.629 301.916 404.631 301.921 404.634 301.926Z" fill="#99644C"/>
<path d="M408.48 302.286C408.885 303.234 410.034 303.816 411.287 303.616L430.019 299.066L431.33 292.842L408.916 301.451C408.568 301.555 408.372 301.922 408.475 302.271C408.476 302.276 408.478 302.281 408.48 302.286Z" fill="#99644C"/>
<path d="M413.8 302.33C414.123 303.261 415.201 303.858 416.44 303.699L430.218 300.833C433.204 300.212 435.652 297.964 436.509 295.056L436.872 293.822L414.29 301.533C413.942 301.624 413.721 301.973 413.796 302.314C413.799 302.319 413.8 302.324 413.8 302.33Z" fill="#99644C"/>
<path d="M431.506 299.577L424.957 293.195C423.22 290.169 424.273 286.271 427.296 284.534L431.895 281.891C434.918 280.152 443.49 279.837 445.228 282.863L439.762 293.569C439.105 294.854 438.154 295.968 436.986 296.814L433.027 299.686C432.56 300.024 431.918 299.978 431.506 299.577Z" fill="#99644C"/>
<path d="M435.988 280.919L421.237 289.397L422.327 288.693C422.431 288.625 422.53 288.549 422.623 288.463C423.587 287.593 423.661 286.105 422.794 285.139L422.776 285.099C422.229 284.497 421.447 284.16 420.633 284.177L416.739 284.275C415.757 284.31 414.777 284.078 413.916 283.602C413.337 283.259 412.833 282.822 412.544 282.317C412.389 282.047 412.294 281.761 412.28 281.457C412.28 281.416 412.279 281.375 412.284 281.335C412.34 280.824 412.799 280.455 413.31 280.511L425.286 280.661L428.08 280.068C429.793 279.695 431.569 279.737 433.263 280.19L435.81 280.879C435.869 280.895 435.926 280.909 435.988 280.919Z" fill="#99644C"/>
<path d="M432.958 299.272C428.3 302.064 422.53 300.7 420.068 296.225C417.605 291.75 417.463 288.59 424.043 283.067C428.202 279.576 434.47 281.639 436.932 286.114C439.394 290.589 437.614 296.481 432.958 299.272Z" fill="#99644C"/>
<path d="M484.085 209.835L464.491 250.171L459.66 260.359L473.156 272.564L504.798 218.616L484.085 209.835Z" fill="#99644C"/>
<path d="M503.57 220.579L497.362 244.621L470.516 236.965L483.035 210.797C484.221 208.319 487.404 207.593 489.545 209.313L503.57 220.579Z" fill="#7CA6B3"/>
<path d="M576.973 289.521L580.081 372.423H541.761L535.03 295.739L576.973 289.521Z" fill="#F5F5F5"/>
<path d="M550.451 303.669L529.83 383.39L493.727 369.91L509 294.737L550.451 303.669Z" fill="#F5F5F5"/>
<path d="M505.786 310.803L571.945 296.799L564.227 209.309L490.53 217.683L505.786 310.803Z" fill="#7CA6B3"/>
<path d="M430.542 285.714L459.751 260.172L471.771 264.088C474.592 265.007 475.795 268.337 474.214 270.847L472.507 273.559C470.783 275.713 466.552 278.474 464.119 279.774L437.43 294.949L430.542 285.714Z" fill="#99644C"/>
<path d="M524.132 424.914L520.003 459.1L518.599 470.743L517.836 477.103L517.602 478.986L516.87 485.072L516.504 488.075L515.965 492.634L515.924 492.899C515.924 492.899 512.873 493.357 509.343 493.896C507.777 494.14 506.129 494.384 504.604 494.629C503.76 494.751 502.966 494.873 502.244 494.985H498.704L498.613 493.428L497.931 481.113L497.158 467.293L494.565 420.681L493.71 412.844H522.637L523.868 418.696C524.295 420.742 524.387 422.838 524.132 424.914Z" fill="#7CA6B3"/>
<path d="M474.795 507.116L470.321 504.45C469.087 503.714 468.229 502.457 468.039 501.108C467.76 499.124 468.981 497.442 470.905 497.161L479.389 495.923C484.752 495.141 489.175 492.019 491.512 487.367L494.311 481.798L498.033 483.894C498.93 484.399 499.393 485.444 499.108 486.323L498.294 488.839L503.397 490.844C506.855 492.202 510.521 491.577 512.842 489.233L516.427 485.615C517.054 484.981 518.252 485.456 518.436 486.413L521.568 502.692L521.127 506.524L474.795 507.116Z" fill="#002652"/>
<path d="M522.974 503.763L522.442 505.374C521.484 508.272 518.829 510.121 515.627 510.121H481.582C480.928 510.121 480.26 509.952 479.644 509.632L472.136 505.714C471.975 505.63 472.035 505.388 472.216 505.388H499.544C500.04 505.388 500.49 505.194 500.797 504.848C502.339 503.107 504.597 502.133 507.091 502.133H521.712C522.55 502.131 523.225 503.004 522.974 503.763Z" fill="#7CA6B3"/>
<path d="M496.144 200.19L553.714 188.969C560.208 187.703 566.88 190.042 571.165 195.085L581.519 207.274L475.739 230.681L482.403 212.01C484.577 205.919 489.799 201.427 496.144 200.19Z" fill="#7CA6B3"/>
<path d="M514.778 170.607L499.974 185.817L530.059 215.138C530.789 215.849 532.015 215.322 531.999 214.301L531.588 186.991L514.778 170.607Z" fill="#99644C"/>
<path d="M499.332 181.777L495.346 181.734C493.685 181.716 492.841 179.728 493.982 178.52L498.97 173.234L499.332 181.777Z" fill="#99644C"/>
<path d="M515.107 151.032L520.497 150.961C526.387 150.884 531.225 155.599 531.304 161.491L531.656 188.171L497.374 188.623L497.122 169.508C496.989 159.438 505.042 151.164 515.107 151.032Z" fill="#99644C"/>
<path opacity="0.1" d="M506.59 192.651L510.026 191.183C511.273 190.649 512.661 191.554 512.679 192.91L512.743 197.763" fill="#1D2445"/>
<path opacity="0.1" d="M497.276 172.274L499.885 172.239C500.188 172.235 500.481 172.352 500.698 172.563L501.798 173.636C502.527 174.347 502.034 175.584 501.016 175.598L497.86 175.639" fill="#1D2445"/>
<path d="M511.609 176.069L511.662 180.111C511.711 183.838 509.539 187.236 506.138 188.754C506.1 185.83 503.7 183.493 500.779 183.531L497.307 183.577L497.404 190.946C497.439 193.631 500.165 195.439 502.651 194.425L512.503 190.405C513.953 189.813 514.894 188.393 514.873 186.825L514.689 172.903C512.966 172.926 511.586 174.343 511.609 176.069Z" fill="#1D2445"/>
<path d="M501.374 189.557L498.759 190.198C498.064 190.368 497.39 189.847 497.381 189.131L497.339 185.958L499.854 185.924C501.2 185.906 502.306 186.983 502.324 188.331C502.33 188.91 501.936 189.419 501.374 189.557Z" fill="#99644C"/>
<path d="M530.486 226.416C540.734 225.201 545.683 230.634 546.313 235.963C546.761 239.74 545.178 243.69 541.052 246.368L541.076 246.57C545.582 247.678 549.789 250.872 550.451 256.471C551.394 264.43 545.358 270.618 535.179 271.825C524.056 273.144 518.189 267.478 517.486 261.542C516.864 256.281 519.465 252.279 524.004 249.62L523.988 249.486C519.477 247.763 516.965 244.436 516.509 240.591C515.63 233.172 521.722 227.456 530.417 226.425L530.486 226.416ZM534.746 264.694C538.319 264.271 540.465 261.621 540.098 258.519C539.642 254.674 536.473 252.724 532.367 252.117C529.108 253.461 527.441 256.121 527.816 259.292C528.124 262.47 530.902 265.15 534.679 264.702L534.746 264.694ZM530.837 233.42C527.331 233.836 525.858 236.404 526.178 239.103C526.53 242.071 529.382 243.648 533.015 244.312C535.294 243.358 537.129 240.951 536.81 238.253C536.482 235.488 534.612 232.973 530.904 233.413L530.837 233.42Z" fill="#D4E7FF"/>
<path d="M504.217 301.413L503.2 323.294L577.958 316.679L576.941 287.165L504.217 301.413Z" fill="#7CA6B3"/>
<path d="M623.32 271.764C624.826 274.616 625.845 277.589 626.405 280.608C626.862 283.085 624.977 285.585 624.831 288.053C624.546 292.922 625.153 297.669 622.701 301.885C619.885 306.747 615.716 310.898 610.393 313.714C607.641 315.169 604.774 316.168 601.866 316.739C599.877 317.127 597.874 315.281 595.883 315.278C593.763 315.275 591.656 317.092 589.598 316.666C580.857 314.842 572.965 309.29 568.468 300.779C560.464 285.627 566.244 266.844 581.396 258.83C596.539 250.819 615.315 256.613 623.32 271.764Z" fill="white"/>
<path d="M577.181 282.856C577.164 283.106 577.158 283.354 577.145 283.602C582.46 282.659 588.275 282.642 594.232 283.748C594.429 283.784 594.619 283.828 594.814 283.867C595.764 277.624 597.837 271.938 600.711 267.183C593.532 265.966 586.579 266.357 580.493 268.051C578.702 272.53 577.535 277.532 577.181 282.856Z" fill="#193740"/>
<path d="M626.405 280.608C627.764 287.97 626.397 295.532 622.7 301.885C620.212 297.653 616.457 293.813 611.769 290.71C612.554 284.205 614.548 278.246 617.411 273.255C620.912 275.351 623.944 277.846 626.405 280.608Z" fill="#193740"/>
<path d="M601.867 316.738C597.758 317.541 593.59 317.49 589.599 316.666C584.731 312.656 580.967 306.577 578.879 299.358C581.529 299.407 584.232 299.67 586.974 300.177C589.962 300.737 592.806 301.547 595.49 302.556C596.772 307.967 598.966 312.816 601.867 316.738Z" fill="#193740"/>
<path d="M624.053 287.499L606.588 265.436L599.608 255.242L605.952 238.79L614.202 246.156C616.261 247.994 617.925 250.232 619.093 252.732L632.808 280.212L624.053 287.499Z" fill="#99644C"/>
<path d="M633.369 316.46C633.369 316.46 633.375 316.461 633.38 316.461C633.643 316.531 633.913 316.378 633.989 316.116L636.42 307.35C636.683 306.408 636.732 305.417 636.565 304.451L635.872 300.214L637.344 297.988C637.863 297.214 638.068 296.27 637.931 295.352L636.768 287.409L636.758 287.344C636.727 287.064 636.164 285.645 636.164 285.645L626.856 268.744L627.434 280.238C624.859 282.01 624.536 283.647 624.086 285.834L623.305 289.679C623.06 291.079 623.196 292.515 623.694 293.842C624.011 294.654 624.207 295.505 624.281 296.376C624.519 298.836 624.972 302.701 624.972 302.701C625.101 303.342 625.627 303.817 626.268 303.889L626.409 303.905C627.211 303.933 627.879 303.313 627.912 302.512C627.952 301.705 628.239 296.9 628.357 295.401C628.358 295.395 628.358 295.39 628.358 295.39C628.385 295.147 628.557 294.946 628.794 294.887C629.025 294.827 629.266 294.93 629.392 295.133L630.377 296.74L633.106 306.081L632.041 314.347C631.925 315.266 632.463 316.143 633.337 316.45L633.369 316.46Z" fill="#99644C"/>
<path d="M558.073 215.03L589.373 247.132L601.181 256.802L613.363 246.555L573.343 198.5L558.073 215.03Z" fill="#99644C"/>
<path d="M573.343 198.242L589.919 216.723L568.688 234.857L551.082 205.324L573.343 198.242Z" fill="#7CA6B3"/>
</g>
<defs>
<clipPath id="clip0_57_2367">
<rect width="735.653" height="77.52" fill="white" transform="translate(32.5601 191.76)"/>
</clipPath>
<clipPath id="clip1_57_2367">
<rect width="206.553" height="119.34" fill="white" transform="translate(194.634 197.126)"/>
</clipPath>
<clipPath id="clip2_57_2367">
<rect width="179.08" height="12.24" fill="white" transform="translate(169.922 510)"/>
</clipPath>
<clipPath id="clip3_57_2367">
<rect width="186.202" height="362.1" fill="white" transform="translate(201.465 150.96)"/>
</clipPath>
<clipPath id="clip4_57_2367">
<rect width="208.587" height="14.28" fill="white" transform="translate(400.895 506.94)"/>
</clipPath>
<clipPath id="clip5_57_2367">
<rect width="237.077" height="361.08" fill="white" transform="translate(400.895 150.96)"/>
</clipPath>
</defs>
</svg>
